<?xml version="1.0" encoding="iso-8859-1"?>
<!-- Generator: Adobe Illustrator 19.0.0, SVG Export Plug-In . SVG Version: 6.00 Build 0)  -->
<svg width="40px" height="40px" version="1.1" id="Capa_1" xmlns="http://www.w3.org/2000/svg" xmlns:xlink="http://www.w3.org/1999/xlink" x="0px" y="0px"
	 viewBox="0 0 503.106 503.106" style="enable-background:new 0 0 503.106 503.106;" xml:space="preserve">
<path style="fill:#455A64;" d="M503.104,458.731c0.055,8.496-3.331,16.653-9.387,22.613l-1.707,1.707
	c-5.96,6.055-14.117,9.441-22.613,9.387c-8.504,0.094-16.676-3.298-22.613-9.387l-96-96l46.933-46.933l96,96
	C499.806,442.055,503.198,450.227,503.104,458.731z"/>
<path style="fill:#607D8B;" d="M397.717,340.117l-46.933,46.933L160.277,196.757c-3.051-3.094-3.973-7.704-2.347-11.733
	l18.347-45.44c1.354-3.35,4.336-5.767,7.893-6.4c3.457-0.62,7.006,0.405,9.6,2.773L397.717,340.117z"/>
<path style="fill:#FFC107;" d="M270.784,118.208l-67.072-28.757l9.472-66.603c0.817-5.834-3.251-11.226-9.085-12.042
	c-2.567-0.359-5.176,0.228-7.341,1.653l-58.091,38.72l-58.091-38.72c-4.904-3.264-11.526-1.934-14.79,2.97
	c-1.453,2.183-2.051,4.824-1.68,7.42l9.515,66.603L6.464,118.208c-5.414,2.323-7.92,8.594-5.597,14.008
	c1.079,2.515,3.083,4.518,5.597,5.597l67.157,28.779l-9.515,66.581c-0.834,5.832,3.218,11.235,9.05,12.069
	c2.596,0.371,5.237-0.227,7.42-1.68l58.091-38.741l58.091,38.72c4.904,3.264,11.526,1.934,14.79-2.97
	c1.453-2.183,2.051-4.824,1.68-7.42l-9.515-66.56l67.072-28.779c5.414-2.323,7.92-8.594,5.597-14.008
	C275.302,121.291,273.299,119.287,270.784,118.208L270.784,118.208z"/>
<g>
	<path style="fill:#FFA000;" d="M139.093,32c-5.891,0-10.667-4.776-10.667-10.667c0-5.85,4.711-10.608,10.56-10.667h0.213
		c5.891,0,10.667,4.776,10.667,10.667S145.091,32,139.2,32H139.093z"/>
	<path style="fill:#FFA000;" d="M245.76,74.667c-5.891,0-10.667-4.776-10.667-10.667c0-5.85,4.711-10.608,10.56-10.667h0.213
		c5.891,0,10.667,4.776,10.667,10.667s-4.776,10.667-10.667,10.667H245.76z"/>
	<path style="fill:#FFA000;" d="M32.427,74.667c-5.891,0-10.667-4.776-10.667-10.667c0-5.85,4.711-10.608,10.56-10.667h0.213
		C38.424,53.333,43.2,58.109,43.2,64s-4.776,10.667-10.667,10.667H32.427z"/>
	<path style="fill:#FFA000;" d="M139.093,245.333c-5.891,0-10.667-4.776-10.667-10.667c0-5.85,4.711-10.608,10.56-10.667h0.213
		c5.891,0,10.667,4.776,10.667,10.667s-4.776,10.667-10.667,10.667H139.093z"/>
	<path style="fill:#FFA000;" d="M32.427,202.667c-5.891,0-10.667-4.776-10.667-10.667c0-5.85,4.711-10.608,10.56-10.667h0.213
		c5.891,0,10.667,4.776,10.667,10.667s-4.776,10.667-10.667,10.667H32.427z"/>
</g>
<g>
</g>
<g>
</g>
<g>
</g>
<g>
</g>
<g>
</g>
<g>
</g>
<g>
</g>
<g>
</g>
<g>
</g>
<g>
</g>
<g>
</g>
<g>
</g>
<g>
</g>
<g>
</g>
<g>
</g>
</svg>
